<?xml version="1.0" standalone="no"?><svg xmlns="http://www.w3.org/2000/svg" viewBox="0 0 1440 320"><path fill="#fccf41" fill-opacity="1" d="M0,288L15,250.7C30,213,60,139,90,112C120,85,150,107,180,144C210,181,240,235,270,245.3C300,256,330,224,360,202.7C390,181,420,171,450,192C480,213,510,267,540,256C570,245,600,171,630,165.3C660,160,690,224,720,218.7C750,213,780,139,810,112C840,85,870,107,900,112C930,117,960,107,990,101.3C1020,96,1050,96,1080,122.7C1110,149,1140,203,1170,208C1200,213,1230,171,1260,170.7C1290,171,1320,213,1350,213.3C1380,213,1410,171,1425,149.3L1440,128L1440,0L1425,0C1410,0,1380,0,1350,0C1320,0,1290,0,1260,0C1230,0,1200,0,1170,0C1140,0,1110,0,1080,0C1050,0,1020,0,990,0C960,0,930,0,900,0C870,0,840,0,810,0C780,0,750,0,720,0C690,0,660,0,630,0C600,0,570,0,540,0C510,0,480,0,450,0C420,0,390,0,360,0C330,0,300,0,270,0C240,0,210,0,180,0C150,0,120,0,90,0C60,0,30,0,15,0L0,0Z"></path></svg>