<?xml version="1.0" standalone="no"?><svg xmlns="http://www.w3.org/2000/svg" viewBox="0 0 1440 320"><path fill="#000b76" fill-opacity="1" d="M0,192L8,202.7C16,213,32,235,48,229.3C64,224,80,192,96,186.7C112,181,128,203,144,181.3C160,160,176,96,192,90.7C208,85,224,139,240,133.3C256,128,272,64,288,32C304,0,320,0,336,5.3C352,11,368,21,384,32C400,43,416,53,432,85.3C448,117,464,171,480,197.3C496,224,512,224,528,197.3C544,171,560,117,576,80C592,43,608,21,624,32C640,43,656,85,672,133.3C688,181,704,235,720,250.7C736,267,752,245,768,240C784,235,800,245,816,245.3C832,245,848,235,864,213.3C880,192,896,160,912,144C928,128,944,128,960,122.7C976,117,992,107,1008,106.7C1024,107,1040,117,1056,117.3C1072,117,1088,107,1104,90.7C1120,75,1136,53,1152,53.3C1168,53,1184,75,1200,117.3C1216,160,1232,224,1248,229.3C1264,235,1280,181,1296,144C1312,107,1328,85,1344,90.7C1360,96,1376,128,1392,138.7C1408,149,1424,139,1432,133.3L1440,128L1440,320L1432,320C1424,320,1408,320,1392,320C1376,320,1360,320,1344,320C1328,320,1312,320,1296,320C1280,320,1264,320,1248,320C1232,320,1216,320,1200,320C1184,320,1168,320,1152,320C1136,320,1120,320,1104,320C1088,320,1072,320,1056,320C1040,320,1024,320,1008,320C992,320,976,320,960,320C944,320,928,320,912,320C896,320,880,320,864,320C848,320,832,320,816,320C800,320,784,320,768,320C752,320,736,320,720,320C704,320,688,320,672,320C656,320,640,320,624,320C608,320,592,320,576,320C560,320,544,320,528,320C512,320,496,320,480,320C464,320,448,320,432,320C416,320,400,320,384,320C368,320,352,320,336,320C320,320,304,320,288,320C272,320,256,320,240,320C224,320,208,320,192,320C176,320,160,320,144,320C128,320,112,320,96,320C80,320,64,320,48,320C32,320,16,320,8,320L0,320Z"></path></svg>